<?xml version="1.0" encoding="UTF-8" standalone="no"?>
<!-- Created with Inkscape (http://www.inkscape.org/) -->

<svg
   xmlns:dc="http://purl.org/dc/elements/1.1/"
   xmlns:cc="http://creativecommons.org/ns#"
   xmlns:rdf="http://www.w3.org/1999/02/22-rdf-syntax-ns#"
   xmlns:svg="http://www.w3.org/2000/svg"
   xmlns="http://www.w3.org/2000/svg"
   xmlns:xlink="http://www.w3.org/1999/xlink"
   xmlns:sodipodi="http://sodipodi.sourceforge.net/DTD/sodipodi-0.dtd"
   xmlns:inkscape="http://www.inkscape.org/namespaces/inkscape"
   width="18.507999"
   height="18.507847"
   id="svg3632"
   version="1.1"
   inkscape:version="0.48.3.1 r9886"
   sodipodi:docname="leftupright.svg">
  <defs
     id="defs3634">
    <linearGradient
       x1="285.01297"
       y1="336.33835"
       x2="261.95084"
       y2="336.32831"
       id="linearGradient2016"
       xlink:href="#linearGradient2783"
       gradientUnits="userSpaceOnUse"
       gradientTransform="matrix(0.176101,0,0,4.444445,-384.21753,-1185.504)" />
    <linearGradient
       id="linearGradient2783">
      <stop
         style="stop-color:#323232;stop-opacity:1"
         offset="0"
         id="stop2785" />
      <stop
         style="stop-color:#dfe1e1;stop-opacity:1"
         offset="0.07692308"
         id="stop2787" />
      <stop
         style="stop-color:#b6b1b1;stop-opacity:1"
         offset="0.26289096"
         id="stop2799" />
      <stop
         style="stop-color:#8d8282;stop-opacity:1"
         offset="0.5"
         id="stop2789" />
      <stop
         style="stop-color:white;stop-opacity:1"
         offset="0.78201604"
         id="stop2791" />
      <stop
         style="stop-color:#dfd9df;stop-opacity:1"
         offset="0.9005897"
         id="stop2793" />
      <stop
         style="stop-color:#3a3a3a;stop-opacity:1"
         offset="1"
         id="stop2795" />
    </linearGradient>
    <linearGradient
       x1="261.95139"
       y1="336.0571"
       x2="285.01355"
       y2="336.0571"
       id="linearGradient2245"
       xlink:href="#linearGradient2783-7"
       gradientUnits="userSpaceOnUse"
       gradientTransform="matrix(0.176101,0,0,4.968821,-384.21753,-1362.793)" />
    <linearGradient
       id="linearGradient2783-7">
      <stop
         style="stop-color:#323232;stop-opacity:1"
         offset="0"
         id="stop2785-9" />
      <stop
         style="stop-color:#dfe1e1;stop-opacity:1"
         offset="0.07692308"
         id="stop2787-1" />
      <stop
         style="stop-color:#b6b1b1;stop-opacity:1"
         offset="0.26289096"
         id="stop2799-6" />
      <stop
         style="stop-color:#8d8282;stop-opacity:1"
         offset="0.5"
         id="stop2789-5" />
      <stop
         style="stop-color:white;stop-opacity:1"
         offset="0.78201604"
         id="stop2791-5" />
      <stop
         style="stop-color:#dfd9df;stop-opacity:1"
         offset="0.9005897"
         id="stop2793-8" />
      <stop
         style="stop-color:#3a3a3a;stop-opacity:1"
         offset="1"
         id="stop2795-6" />
    </linearGradient>
    <linearGradient
       x1="285.01254"
       y1="336.40564"
       x2="261.95041"
       y2="336.40564"
       id="linearGradient2242"
       xlink:href="#linearGradient2783-7"
       gradientUnits="userSpaceOnUse"
       gradientTransform="matrix(-0.176101,0,0,-4.973078,347.42616,1999.556)" />
    <linearGradient
       id="linearGradient3710">
      <stop
         style="stop-color:#323232;stop-opacity:1"
         offset="0"
         id="stop3712" />
      <stop
         style="stop-color:#dfe1e1;stop-opacity:1"
         offset="0.07692308"
         id="stop3714" />
      <stop
         style="stop-color:#b6b1b1;stop-opacity:1"
         offset="0.26289096"
         id="stop3716" />
      <stop
         style="stop-color:#8d8282;stop-opacity:1"
         offset="0.5"
         id="stop3718" />
      <stop
         style="stop-color:white;stop-opacity:1"
         offset="0.78201604"
         id="stop3720" />
      <stop
         style="stop-color:#dfd9df;stop-opacity:1"
         offset="0.9005897"
         id="stop3722" />
      <stop
         style="stop-color:#3a3a3a;stop-opacity:1"
         offset="1"
         id="stop3724" />
    </linearGradient>
    <linearGradient
       x1="285.01221"
       y1="337.89325"
       x2="261.9498"
       y2="337.89325"
       id="linearGradient109999"
       xlink:href="#linearGradient2783-8"
       gradientUnits="userSpaceOnUse"
       gradientTransform="matrix(0.176101,0,0,8.9260005,-444.20218,-2928.7716)" />
    <linearGradient
       id="linearGradient2783-8">
      <stop
         style="stop-color:#323232;stop-opacity:1"
         offset="0"
         id="stop2785-7" />
      <stop
         style="stop-color:#dfe1e1;stop-opacity:1"
         offset="0.07692308"
         id="stop2787-9" />
      <stop
         style="stop-color:#b6b1b1;stop-opacity:1"
         offset="0.26289096"
         id="stop2799-0" />
      <stop
         style="stop-color:#8d8282;stop-opacity:1"
         offset="0.5"
         id="stop2789-3" />
      <stop
         style="stop-color:white;stop-opacity:1"
         offset="0.78201604"
         id="stop2791-4" />
      <stop
         style="stop-color:#dfd9df;stop-opacity:1"
         offset="0.9005897"
         id="stop2793-2" />
      <stop
         style="stop-color:#3a3a3a;stop-opacity:1"
         offset="1"
         id="stop2795-5" />
    </linearGradient>
    <linearGradient
       x1="261.95139"
       y1="336.0571"
       x2="285.01355"
       y2="336.0571"
       id="linearGradient2143"
       xlink:href="#linearGradient2783-0"
       gradientUnits="userSpaceOnUse"
       gradientTransform="matrix(0.176101,0,0,8.9260005,-384.14104,-2700.4124)" />
    <linearGradient
       id="linearGradient2783-0">
      <stop
         style="stop-color:#323232;stop-opacity:1"
         offset="0"
         id="stop2785-0" />
      <stop
         style="stop-color:#dfe1e1;stop-opacity:1"
         offset="0.07692308"
         id="stop2787-96" />
      <stop
         style="stop-color:#b6b1b1;stop-opacity:1"
         offset="0.26289096"
         id="stop2799-00" />
      <stop
         style="stop-color:#8d8282;stop-opacity:1"
         offset="0.5"
         id="stop2789-8" />
      <stop
         style="stop-color:white;stop-opacity:1"
         offset="0.78201604"
         id="stop2791-9" />
      <stop
         style="stop-color:#dfd9df;stop-opacity:1"
         offset="0.9005897"
         id="stop2793-9" />
      <stop
         style="stop-color:#3a3a3a;stop-opacity:1"
         offset="1"
         id="stop2795-8" />
    </linearGradient>
    <linearGradient
       x1="285.01279"
       y1="335.72562"
       x2="261.95065"
       y2="335.72562"
       id="linearGradient2146"
       xlink:href="#linearGradient2783-0"
       gradientUnits="userSpaceOnUse"
       gradientTransform="matrix(-0.1741626,0,0,4.444445,346.81755,-1166.0835)" />
    <linearGradient
       id="linearGradient3896">
      <stop
         style="stop-color:#323232;stop-opacity:1"
         offset="0"
         id="stop3898" />
      <stop
         style="stop-color:#dfe1e1;stop-opacity:1"
         offset="0.07692308"
         id="stop3900" />
      <stop
         style="stop-color:#b6b1b1;stop-opacity:1"
         offset="0.26289096"
         id="stop3902" />
      <stop
         style="stop-color:#8d8282;stop-opacity:1"
         offset="0.5"
         id="stop3904" />
      <stop
         style="stop-color:white;stop-opacity:1"
         offset="0.78201604"
         id="stop3906" />
      <stop
         style="stop-color:#dfd9df;stop-opacity:1"
         offset="0.9005897"
         id="stop3908" />
      <stop
         style="stop-color:#3a3a3a;stop-opacity:1"
         offset="1"
         id="stop3910" />
    </linearGradient>
    <linearGradient
       y2="335.72562"
       x2="261.95065"
       y1="335.72562"
       x1="285.01279"
       gradientTransform="matrix(-0.1741626,0,0,4.444445,346.81755,-1166.0835)"
       gradientUnits="userSpaceOnUse"
       id="linearGradient3916"
       xlink:href="#linearGradient2783-0"
       inkscape:collect="always" />
    <radialGradient
       inkscape:collect="always"
       xlink:href="#linearGradient17595"
       id="radialGradient16708"
       cx="150.31772"
       cy="68.054863"
       fx="150.31772"
       fy="68.054863"
       r="7.6222448"
       gradientUnits="userSpaceOnUse"
       gradientTransform="matrix(0.95052,-3.01605e-6,2.95325e-6,0.930728,7.43756,4.675474)" />
    <linearGradient
       id="linearGradient17595">
      <stop
         id="stop17597"
         offset="0"
         style="stop-color:black;stop-opacity:1;" />
      <stop
         style="stop-color:black;stop-opacity:1;"
         offset="0.5"
         id="stop17601" />
      <stop
         id="stop17599"
         offset="1"
         style="stop-color:black;stop-opacity:0;" />
    </linearGradient>
    <radialGradient
       cx="22.596113"
       cy="66.948593"
       r="33.8983"
       fx="22.596113"
       fy="66.948593"
       id="radialGradient24397"
       xlink:href="#linearGradient2648"
       gradientUnits="userSpaceOnUse"
       gradientTransform="matrix(1,0,0,0.902419,0,5.424548)" />
    <linearGradient
       id="linearGradient2648">
      <stop
         style="stop-color:white;stop-opacity:1"
         offset="0"
         id="stop2650" />
      <stop
         style="stop-color:white;stop-opacity:0"
         offset="1"
         id="stop2652" />
    </linearGradient>
    <radialGradient
       cx="65.361084"
       cy="60.92733"
       r="60.01239"
       fx="57.520046"
       fy="107.16486"
       id="radialGradient24399"
       xlink:href="#linearGradient2805"
       gradientUnits="userSpaceOnUse"
       gradientTransform="matrix(1,0,0,1.00713,0,-0.434418)" />
    <linearGradient
       id="linearGradient2805">
      <stop
         style="stop-color:#c1ddff;stop-opacity:1"
         offset="0"
         id="stop2807" />
      <stop
         style="stop-color:#00316e;stop-opacity:1"
         offset="1"
         id="stop16619" />
    </linearGradient>
    <linearGradient
       x1="-647.40521"
       y1="93.033043"
       x2="-415.34451"
       y2="73.694656"
       id="linearGradient24401"
       xlink:href="#linearGradient3698"
       gradientUnits="userSpaceOnUse"
       gradientTransform="matrix(0.507191,0,0,0.507191,371.2649,251.3121)" />
    <linearGradient
       id="linearGradient3698">
      <stop
         style="stop-color:#00148e;stop-opacity:1"
         offset="0"
         id="stop3700" />
      <stop
         style="stop-color:#9f9f9f;stop-opacity:0"
         offset="1"
         id="stop3702" />
    </linearGradient>
    <linearGradient
       x1="266.00696"
       y1="-19.02128"
       x2="244.3732"
       y2="93.121078"
       id="linearGradient24403"
       xlink:href="#linearGradient3722"
       gradientUnits="userSpaceOnUse"
       gradientTransform="matrix(0.871195,0,0,0.871195,-115.1788,247.1803)" />
    <linearGradient
       id="linearGradient3722">
      <stop
         style="stop-color:#e6eef8;stop-opacity:1"
         offset="0"
         id="stop3724-2" />
      <stop
         style="stop-color:#a4c0e4;stop-opacity:0"
         offset="1"
         id="stop3726" />
    </linearGradient>
    <radialGradient
       cx="224.46358"
       cy="-4.2258649"
       r="16.390625"
       fx="224.46358"
       fy="-4.2258649"
       id="radialGradient24405"
       xlink:href="#linearGradient10539"
       gradientUnits="userSpaceOnUse"
       gradientTransform="matrix(2.315085,-0.01392699,0.07510166,7.192445,-420.3275,41.73743)" />
    <linearGradient
       id="linearGradient10539">
      <stop
         style="stop-color:white;stop-opacity:1"
         offset="0"
         id="stop10541" />
      <stop
         style="stop-color:#888a85;stop-opacity:0"
         offset="1"
         id="stop10543" />
    </linearGradient>
    <radialGradient
       cx="58.991161"
       cy="28.064653"
       r="41.926258"
       fx="58.991161"
       fy="28.064653"
       id="radialGradient24407"
       xlink:href="#linearGradient3735"
       gradientUnits="userSpaceOnUse"
       gradientTransform="matrix(1.402239,0,0,0.956778,17.16063,237.0432)" />
    <linearGradient
       id="linearGradient3735">
      <stop
         style="stop-color:white;stop-opacity:1"
         offset="0"
         id="stop3737" />
      <stop
         style="stop-color:white;stop-opacity:0"
         offset="1"
         id="stop16606" />
    </linearGradient>
    <radialGradient
       cx="19.006332"
       cy="99.120926"
       r="4.6031747"
       fx="19.006332"
       fy="99.120926"
       id="radialGradient24409"
       xlink:href="#linearGradient34264"
       gradientUnits="userSpaceOnUse"
       gradientTransform="matrix(1,0,0,1.412255,-10.60951,-60.48313)" />
    <linearGradient
       id="linearGradient34264">
      <stop
         style="stop-color:white;stop-opacity:1"
         offset="0"
         id="stop34266" />
      <stop
         style="stop-color:white;stop-opacity:0"
         offset="1"
         id="stop34268" />
    </linearGradient>
    <radialGradient
       cx="173.35292"
       cy="29.473955"
       r="7.125"
       fx="173.35292"
       fy="29.473955"
       id="radialGradient24411"
       xlink:href="#linearGradient4174"
       gradientUnits="userSpaceOnUse"
       gradientTransform="matrix(4.765918,0.334945,-0.309234,4.496536,-664.8065,-156.7887)" />
    <linearGradient
       id="linearGradient4174">
      <stop
         style="stop-color:white;stop-opacity:1"
         offset="0"
         id="stop4176" />
      <stop
         style="stop-color:#3e3e3e;stop-opacity:0"
         offset="1"
         id="stop4178" />
    </linearGradient>
  </defs>
  <sodipodi:namedview
     id="base"
     pagecolor="#ffffff"
     bordercolor="#666666"
     borderopacity="1.0"
     inkscape:pageopacity="0.0"
     inkscape:pageshadow="2"
     inkscape:zoom="7.9195959"
     inkscape:cx="13.073338"
     inkscape:cy="4.1802809"
     inkscape:document-units="px"
     inkscape:current-layer="layer1"
     showgrid="false"
     fit-margin-top="0"
     fit-margin-left="0"
     fit-margin-right="0"
     fit-margin-bottom="0"
     inkscape:window-width="554"
     inkscape:window-height="453"
     inkscape:window-x="1136"
     inkscape:window-y="71"
     inkscape:window-maximized="0" />
  <metadata
     id="metadata3637">
    <rdf:RDF>
      <cc:Work
         rdf:about="">
        <dc:format>image/svg+xml</dc:format>
        <dc:type
           rdf:resource="http://purl.org/dc/dcmitype/StillImage" />
        <dc:title></dc:title>
      </cc:Work>
    </rdf:RDF>
  </metadata>
  <g
     inkscape:label="Ebene 1"
     inkscape:groupmode="layer"
     id="layer1"
     transform="translate(-440.76852,-558.95133)">
    <g
       id="server"
       transform="matrix(0.53674566,0,0,0.53674566,436.65054,554.55671)">
      <rect
         id="rect3733"
         style="fill:#ffffff;fill-opacity:0;fill-rule:nonzero;stroke:none"
         y="8.143055"
         x="7.7128382"
         height="34.955864"
         width="34.955864" />
      <path
         sodipodi:type="arc"
         style="fill:url(#radialGradient16708);fill-opacity:1;fill-rule:nonzero;stroke:none"
         id="path15815"
         sodipodi:cx="150.31776"
         sodipodi:cy="67.487556"
         sodipodi:rx="7.6222448"
         sodipodi:ry="7.6222448"
         d="m 157.94001,67.487556 c 0,4.20965 -3.4126,7.622245 -7.62225,7.622245 -4.20965,0 -7.62224,-3.412595 -7.62224,-7.622245 0,-4.209649 3.41259,-7.622244 7.62224,-7.622244 4.20965,0 7.62225,3.412595 7.62225,7.622244 z"
         transform="matrix(2.293991,0,0,2.293991,-319.6294,-129.2023)" />
      <g
         id="g24268"
         transform="matrix(0.294642,0,0,0.294642,-4.061632,-63.00546)">
        <path
           inkscape:connector-curvature="0"
           id="path24270"
           style="opacity:0.56557378;fill:url(#radialGradient24397);fill-opacity:1;fill-rule:nonzero;stroke:none"
           transform="matrix(1.062635,0,0,1.051538,-204.5303,257.0657)"
           d="m 335.60579,42.459553 c 0,27.069715 -21.94434,49.014055 -49.01405,49.014055 -27.06972,0 -49.01406,-21.94434 -49.01406,-49.014055 0,-27.069715 21.94434,-49.014055 49.01406,-49.014055 27.06971,0 49.01405,21.94434 49.01405,49.014055 z" />
        <path
           inkscape:connector-curvature="0"
           id="path24272"
           style="fill:url(#radialGradient24399);fill-opacity:1;fill-rule:nonzero;stroke:none"
           transform="matrix(0.833924,0,0,0.821853,45.49023,251.4913)"
           d="m 125.37347,60.92733 c 0.008,33.386186 -26.862563,60.45549 -60.012388,60.45549 -33.149825,0 -60.0207299,-27.069304 -60.0123882,-60.45549 C 5.3403521,27.541144 32.211257,0.4718361 65.361082,0.4718361 c 33.149825,0 60.020728,27.0693079 60.012388,60.4554939 l 0,0 z" />
        <path
           inkscape:connector-curvature="0"
           id="path24274"
           style="opacity:0.34000017;fill:url(#linearGradient24401);fill-opacity:1;fill-rule:nonzero;stroke:none"
           d="m 99.032362,251.68268 c -4.86369,0.0925 -9.550659,0.89185 -13.979439,2.28236 0.134992,-0.0424 0.260749,-0.0855 0.396237,-0.1268 10e-4,3e-5 0.01476,-1.4e-4 0.01585,0 l 0.633995,1.58497 1.378919,-0.0951 2.710305,0.0951 3.265039,-0.72909 c 0,0 2.808428,-0.54757 3.534481,-0.72908 0.726063,-0.18152 2.5518,0.17434 2.5518,0.17434 l 1.901961,1.09363 0.72909,1.53742 c 0,0 -0.45551,1.73196 -1.36307,1.82272 -0.907576,0.0908 -4.62811,-0.34869 -4.62811,-0.34869 0,-1e-5 -1.547617,-0.29247 -2.092166,-0.11095 -0.544541,0.18151 -2.726152,0.82418 -2.726152,0.82418 l -1.537416,0.80834 -2.535953,1.36307 -0.649841,1.37892 0.998528,0.4438 1.632524,0.17434 c -0.06115,0.0701 -0.547232,0.64401 -0.887582,0.72909 -0.363027,0.0908 -2.553324,0.19454 -2.916352,0.28529 -0.363026,0.0908 -2.3616,0.17435 -2.3616,0.17435 l -0.633986,0.99853 2.187257,0.26945 c 0.0025,-0.002 -0.0014,-0.0144 0,-0.0159 0.0013,-0.001 0.01323,-0.0132 0.01585,-0.0159 0.0021,-0.002 0.0134,0.002 0.01585,0 0.0028,-0.002 0.01271,-0.014 0.01586,-0.0159 0.09856,-0.0552 0.355387,-0.14265 0.950979,-0.14265 0.907576,0 1.167227,0.10812 1.711768,0.38039 0.544549,0.27228 2.456708,0.0793 2.456708,0.0793 l 0.919277,-0.0793 1.806867,-0.28529 0.07925,1.52157 -2.298204,0.55474 c -0.166808,-0.0453 -0.307437,-0.0793 -0.412093,-0.0793 -0.544549,0 -2.537477,0.64267 -2.900496,0.82419 -0.363036,0.18151 -1.188727,0.0951 -1.188727,0.0951 l -0.903439,-0.64983 -1.632514,0.26944 c 0,0 -1.819892,1.00873 -2.092167,1.55327 -0.0043,0.009 -0.01072,0.023 -0.01585,0.0317 -0.34698,0.5519 -2.345755,1.50573 -2.345763,1.50573 8e-6,0 0.73359,-1.8919 1.125332,-2.29821 0.0031,-0.003 0.01283,-0.013 0.01585,-0.0159 0.0015,-10e-4 0.0135,-0.0134 0.01585,-0.0159 0.0011,-0.001 -0.0012,-0.0146 0,-0.0159 0.0065,-0.003 0.02744,-0.0137 0.03169,-0.0159 0.0012,-10e-4 0.01478,0.001 0.01586,0 0.01945,-0.0168 0.0486,-0.0431 0.0634,-0.0634 0.290736,-0.42432 0.364535,-2.10801 0.364543,-2.10801 l -1.17288,-0.80834 c 0,10e-6 -1.266657,-0.92493 -1.901959,-0.38039 -0.635301,0.54455 -2.282357,1.82272 -2.282357,1.82272 l -1.17288,2.3616 c -9e-6,0 -0.635503,0.82136 -0.99853,1.09363 -0.363026,0.27227 -0.995705,0.44531 -1.26798,0.80834 -0.272283,0.36303 -0.633986,1.18873 -0.633986,1.18873 0,0 1.998574,-0.27379 2.3616,-0.36455 0.363028,-0.0908 1.995751,-0.91211 2.631053,-1.09363 0.395749,-0.11307 0.727779,-0.44794 0.982681,-0.52304 0.0014,-1.1e-4 0.01425,0 0.01586,0 0.0017,9e-5 0.01411,-1.2e-4 0.01585,0 0.0016,6e-5 0.01444,5e-5 0.01585,0 0.0042,-0.002 0.01139,-0.0135 0.01585,-0.0159 0.0011,0 0.0145,-5e-5 0.01586,0 0.0025,-2e-5 0.01461,-1.1e-4 0.01585,0 0.0096,0.003 0.02515,0.0137 0.0317,0.0159 0.0011,0 0.01458,7e-5 0.01585,0 0.0014,-5e-5 0.01472,10e-6 0.01585,0 0.0044,0.002 0.01159,0.0137 0.01586,0.0159 0.0011,-2e-5 0.01455,8e-5 0.01585,0 0.0069,0.004 0.02341,0.009 0.0317,0.0159 0.01109,0.009 0.02341,0.0243 0.03169,0.0317 0.0025,0.002 0.01337,0.0133 0.01585,0.0159 0.0043,0.004 0.01153,0.0115 0.01586,0.0159 0.02871,0.0372 0.06958,0.0989 0.0951,0.1585 0.0022,0.004 0.01367,0.0274 0.01585,0.0317 -6.9e-5,0.004 1.22e-4,0.0274 0,0.0317 0.157042,0.75325 -1.299674,3.56618 -1.299674,3.56618 0,0 0.736256,1.0059 0.554741,1.82272 -0.155996,0.70195 -0.45769,1.46762 -0.824185,1.72761 -0.01673,0.0114 -0.04637,0.0225 -0.06341,0.0317 -0.01708,0.009 -0.04602,0.0252 -0.0634,0.0317 -0.01569,0.003 -0.03426,0.0132 -0.04755,0.0159 -0.453779,0.0908 -1.806867,0.36455 -1.806867,0.36455 l 0.443795,1.17287 -2.916342,1.90197 0.38039,1.74347 -0.824186,2.8054 -1.537423,-2.36161 0.633994,-1.72762 0.80833,-1.99706 -0.633987,-1.99706 -0.998528,-0.1902 -0.269452,0.82418 -0.364543,1.18873 -0.729086,0.80834 -0.269443,0.90343 -0.808338,-0.90343 -1.172872,-0.80834 -0.554743,0.80834 -0.538886,-0.0793 -1.109485,-1.26798 -1.791011,0.61814 -1.283828,0.45964 -0.919285,-0.1902 -1.521568,1.47403 -0.554742,1.90196 c -0.01187,0.10545 -0.113011,0.96715 -0.42794,1.33138 -0.0024,0.002 -0.01449,0.0144 -0.01585,0.0159 -0.363027,0.36302 -0.90343,1.63252 -0.90343,1.63252 l -0.110946,3.26504 -0.269443,1.01438 -0.269452,0.72908 -0.99853,0 -1.17288,2.17141 -0.633987,2.26651 -1.442324,-4.48546 c -0.656602,3.22788 -0.998529,6.56449 -0.998529,9.98531 0,27.54919 22.361528,49.91073 49.910718,49.91073 27.549193,0 49.910723,-22.36154 49.910723,-49.91073 0,-1.85654 -0.10331,-3.67986 -0.30115,-5.484 0.004,0.0383 -0.004,0.0726 0,0.11095 l -0.33284,0.60229 -0.55473,0.45964 -0.0793,1.17288 -0.38039,1.18873 -0.17435,1.52157 -0.0951,-0.17435 -1.07778,-1.53742 -0.82419,-1.63252 -0.36454,2.09216 -0.26944,3.07484 -0.45965,2.63105 0.0951,2.09216 0.36455,1.63252 0.55472,0.80834 0.90345,0.28529 -0.36455,1.26798 -0.44379,0.87173 c 0.0149,-0.17991 0.0637,-0.93431 -0.0951,-1.33137 -0.002,-0.004 -0.0137,-0.0117 -0.0158,-0.0159 -0.003,-0.006 -0.0128,-0.0261 -0.0159,-0.0317 -0.002,-0.004 -0.0137,-0.0274 -0.0159,-0.0317 -8.1e-4,-9.8e-4 -0.0132,-0.0132 -0.0159,-0.0159 -8.3e-4,-7.9e-4 -0.0132,-0.0131 -0.0159,-0.0159 -0.002,-0.002 -0.0137,-0.0137 -0.0159,-0.0159 -0.001,1.1e-4 -0.0147,-4e-5 -0.0158,0 -10e-4,5e-5 -0.0147,-2e-5 -0.0159,0 -0.003,4e-5 -0.0149,4e-5 -0.0159,0 -0.002,10e-6 -0.014,-1.2e-4 -0.0158,0 -0.001,-6e-5 -0.0148,10e-6 -0.0159,0 -0.001,10e-4 -0.0148,-0.001 -0.0159,0 -0.001,-1.1e-4 -0.0147,3e-5 -0.0158,0 -0.001,10e-4 -0.0147,0.0147 -0.0159,0.0159 -0.009,0.007 -0.0239,0.0263 -0.0317,0.0317 -0.1356,0.11566 -0.27681,0.39095 -0.30114,0.44379 l -0.36455,1.63252 c -0.0425,-0.0409 -0.41294,-0.37873 -1.09363,-0.63399 -0.10777,-0.0404 -0.20377,-0.10421 -0.28529,-0.17434 -0.0127,-0.0113 -0.0355,-0.0357 -0.0476,-0.0476 -0.41172,-0.41535 -0.47549,-1.14118 -0.47549,-1.14118 l -1.09363,-1.44233 -1.09363,-1.63252 -0.88759,-2.09216 -0.19019,1.55328 -0.90344,0.34869 0.0793,-1.07778 -0.90344,0.34869 -1.18872,-0.90343 -1.17288,0.26944 c 0,0 -0.89626,1.36459 -1.07778,1.72762 -0.002,0.004 -0.0125,0.009 -0.0158,0.0159 -0.0112,0.0168 -0.0312,0.0463 -0.0476,0.0634 -0.34579,0.34506 -1.66422,0.72908 -1.66422,0.72909 l -2.09217,0.11095 -0.72908,0.98268 -1.99707,-0.17435 -0.26944,-0.64984 -2.4567,-0.34869 0.0951,1.17288 0.45963,1.09363 1.63252,1.53742 1.63253,0.0951 0.63398,-1.09363 0.82419,-1.17288 0.80833,0.63399 1.36308,-0.0951 0.72908,0.91928 -0.72908,2.34576 -0.634,1.82271 -1.53741,2.36161 -1.90197,2.09216 -1.82271,1.44232 -0.91929,1.45818 -2.26651,0.17434 -0.17434,-1.63252 c 0,0 -0.62248,-1.00004 -0.71324,-1.36307 -0.002,-0.002 -0.0136,-0.0137 -0.0158,-0.0159 1.1e-4,-0.001 -3e-5,-0.0148 0,-0.0159 -0.12498,-0.35168 -0.82419,-0.69739 -0.82419,-0.69739 l -0.63399,-0.80833 -0.99853,-0.72909 -0.34869,-1.26797 -1.55327,-0.0951 -0.36454,-0.99854 -0.99854,-1.18872 -0.99853,-1.52157 -1.09363,-0.3804 -0.71324,0.91929 c 0,0 1.0793,0.99136 1.44233,1.17287 0.004,0.002 0.0273,0.0136 0.0317,0.0159 0.001,0.001 0.0147,0.0146 0.0159,0.0159 0.002,0.002 0.0145,-0.001 0.0158,0 0.004,0.004 0.009,0.0251 0.0159,0.0317 0.003,0.003 0.0133,0.0127 0.0159,0.0159 0.3152,0.40524 0.65147,1.90442 0.96682,2.32991 0.003,0.003 0.0133,0.0127 0.0159,0.0159 0.001,0.001 -0.001,0.0147 0,0.0159 0.003,0.003 0.0131,0.0131 0.0159,0.0159 0.36303,0.36303 0.72908,0.53889 0.72908,0.53889 l 1.28383,1.82271 1.79102,2.26651 3.18578,2.53596 1.53743,0.91928 c 0,0 1.54276,-0.94277 1.88611,-1.33138 0.006,-0.009 0.0262,-0.0394 0.0317,-0.0476 0.001,-10e-4 -10e-4,-0.0144 0,-0.0159 0.005,-0.005 0.0268,-0.0109 0.0317,-0.0159 0.40529,-0.43343 2.50426,-1.87027 2.50426,-1.87026 l 0.36455,1.55327 -0.26945,2.44086 -1.28383,1.63251 -2.17141,1.72762 -0.80833,1.82272 -1.72762,1.44232 -2.09216,3.53448 0.26945,2.36162 -0.0951,1.82271 -0.17435,1.63252 -2.44085,0.63399 -0.99853,1.36308 -1.09363,0.63398 -0.5389,1.44233 -1.74346,0.82418 -1.34722,1.45817 -1.82272,0.26944 -1.17288,1.09364 -0.82419,-0.26945 -1.53742,0 -2.26651,0.72908 -1.45817,0.0793 -0.63399,-0.53889 -0.90343,-0.63399 -1.09363,-0.19019 -0.63399,-0.80835 -0.26944,-1.18872 -0.99853,-0.53889 -0.998538,-0.63399 -0.364542,-0.55474 0.459643,-1.53742 1.172877,-1.09362 -0.459639,-0.99855 -0.713238,-1.26797 -0.824186,-1.07778 -1.267973,-1.37892 -1.093627,-0.80834 0.633985,-1.36307 0.0951,-1.90197 -1.363081,-0.45964 -1.632515,-0.0951 -1.363072,-1.71177 -3.185795,0.0793 -2.07631,0 -1.267981,-0.61814 -1.632515,-0.19019 -1.26798,-0.0793 -1.28382,-0.3804 -3.169947,-3.16994 -0.174343,-0.44379 -0.729086,-1.45817 -1.553271,-1.91782 0,-1.34722 0.459642,-2.09216 0.633986,-1.09363 0.364543,-1.99706 -0.443795,-1.53742 2.631052,-1.63252 0.633986,-1.55328 2.631053,-0.0792 -0.0951,-1.18873 c 0,0 2.002921,-1.45969 2.456709,-1.82272 0.453796,-0.36303 1.442324,-0.44379 1.442324,-0.44379 l 0.459642,-1.07778 0.90343,0.53889 2.092166,0.36454 1.077773,-0.45964 2.092166,-0.0951 2.5518,0.26945 2.266509,0 0.269444,1.28382 -0.0951,1.80687 0.729085,0.36454 1.997069,0.90344 2.44085,1.09363 1.55327,-0.17435 c 0,0 0.27379,-0.81853 0.36455,-1.36307 -2e-5,-10e-4 6e-5,-0.0147 0,-0.0159 0.002,-0.004 -0.002,-0.0116 0,-0.0159 -1.5e-4,-0.004 7e-5,-0.0274 0,-0.0317 0.002,-0.002 0.0136,-0.0137 0.0159,-0.0159 0.002,-0.005 0.0133,-0.0111 0.0159,-0.0159 0.006,-0.0112 0.009,-0.0372 0.0159,-0.0476 0.002,-0.002 0.0136,0.002 0.0158,0 0.0102,-0.0122 0.0345,-0.0354 0.0475,-0.0476 0.002,-0.002 0.0137,-0.0137 0.0159,-0.0159 0.0133,-0.008 0.0342,-0.0253 0.0476,-0.0317 0.35469,-0.16173 1.084,0.0238 1.17287,0.0476 l 2.09217,0.26944 1.90195,0.0951 1.63253,-0.36454 1.09363,0 1.37892,-0.26945 0.26945,-1.09363 0.53888,-0.80833 0,-1.36307 -0.53888,-0.63399 -0.26945,0.0951 -0.91928,0.17435 -0.63399,0.36455 -1.90196,0.17434 -0.99853,-0.44379 -0.55475,-0.80833 -0.72908,-1.37893 0.28529,-0.90343 0.72909,-0.26945 0.88759,-0.26944 0.74493,-0.63399 0.3487,-0.64984 c 0,0 1.00438,-0.44379 1.45817,-0.44379 0.45378,0 1.28382,0.0951 1.28382,0.0951 l 1.90196,-0.26945 1.17288,-0.45964 -0.1902,-1.36307 c 0,0 -0.61964,-0.45247 -0.98268,-0.63399 -0.36302,-0.18151 -0.91927,-0.36454 -0.91927,-0.36454 0,0 -0.26228,-0.54041 -0.4438,-0.90344 -0.002,-0.002 -0.0136,-0.0137 -0.0159,-0.0159 -0.002,-0.004 -0.0137,-0.0274 -0.0158,-0.0317 -0.013,-0.0135 -0.0389,-0.0398 -0.0476,-0.0476 -0.0131,-0.011 -0.0324,-0.0218 -0.0476,-0.0317 -0.34142,-0.21155 -1.14118,-0.14264 -1.14118,-0.14264 l -1.18873,0.53889 -1.45817,-0.26945 -1.17288,1.07778 -0.36454,0.90344 -0.26945,1.74346 0.36454,0.88759 -0.72908,1.47402 -1.18873,-0.11095 -0.80834,0.55474 c 0,0 -0.007,1.44101 0.17435,2.07631 0.18151,0.6353 0.0115,1.00004 -0.0793,1.36308 -0.002,0.004 -0.0136,0.0274 -0.0159,0.0317 1.2e-4,10e-4 -2e-5,0.0147 0,0.0159 -0.002,0.005 -0.0137,0.0118 -0.0159,0.0159 -0.002,0.002 0.002,0.0137 0,0.0159 -0.003,0.003 -0.0151,0.015 -0.0159,0.0159 -0.006,0.006 -0.0256,0.01 -0.0317,0.0159 -0.002,0.002 -0.0136,0.0136 -0.0159,0.0159 -0.002,0.002 0.002,0.0136 0,0.0159 -0.006,0.003 -0.0263,0.0131 -0.0317,0.0158 -0.004,0.002 -0.009,-0.003 -0.0159,0 -0.0204,0.008 -0.0562,0.0269 -0.0792,0.0317 -0.27235,0.0497 -0.69739,-0.0792 -0.69739,-0.0792 -0.0409,-0.0146 -0.28805,-0.11937 -0.49134,-0.2853 -0.087,-0.0731 -0.17138,-0.16841 -0.2219,-0.26944 -0.18151,-0.36303 -0.26945,-0.6355 -0.26945,-0.99854 0,-0.36303 0,-1.09363 0,-1.09363 l -0.82418,-0.63398 -0.55474,-0.55474 -0.0793,-0.98269 -0.82418,-0.36454 c 0,0 -1.0793,-0.71909 -1.44233,-1.17288 -0.36302,-0.45378 -0.72908,-1.18872 -0.72908,-1.18872 l -0.82419,-0.2853 -0.729083,0.55474 1.283833,1.36308 1.17287,1.36307 1.36308,0.90343 0.26944,0.82419 -0.71324,-0.0951 -0.11094,0.71324 -0.26945,0.84003 -0.80833,0.34869 -0.17435,0.82419 -0.45964,0.99853 -0.0951,-0.80833 -0.36454,-0.55474 -0.998534,-0.80834 1.188734,0 0.99852,0 0.17435,-0.99853 c -9.7e-4,-0.0521 -0.0142,-0.49804 -0.26944,-1.09363 -0.0391,-0.0912 -0.10078,-0.1852 -0.1585,-0.2536 -0.004,-0.005 -0.0116,-0.0113 -0.0159,-0.0159 -0.01,-0.0102 -0.0348,-0.035 -0.0476,-0.0475 -0.32655,-0.29261 -0.81364,-0.33068 -0.87173,-0.33285 l -1.267976,-0.80833 -0.903438,-0.99853 -0.554742,-0.90344 -1.077773,0.26945 -1.093637,0.36454 -0.919277,-0.55474 -0.713239,0.1902 -0.0951,1.36307 -0.903429,0.17435 -0.903439,0.36454 -0.538885,0.80834 0,0.64983 -0.459643,0.63399 -0.649842,0.45964 -0.80833,0.61814 -0.554742,0 -1.711767,-0.44379 -0.459643,-0.63399 -1.172881,-0.26944 0,-0.36455 0.269453,-0.53889 -0.459644,-0.64983 0,-0.53889 0.729086,-0.63399 0.174344,-0.63399 0.380398,-1.64837 0.174344,-0.34869 1.363071,0.26944 1.442325,0.53889 1.283828,1.09363 0.190199,-0.72908 0.07924,-1.09363 0,-1.17288 0.269443,-1.17288 -1.822714,-0.63399 0.364543,-0.72908 1.553271,0.44379 0.998529,-0.0793 0.998538,-0.45964 1.093627,-1.36308 0.808331,-0.26944 0.729094,-1.44233 0.71323,0 1.188728,-0.38039 0,-0.72908 -0.174344,-0.98269 0.348697,-0.99853 0.459642,0.72909 0.538886,0.90343 1.014378,0.90343 1.26797,-0.0951 1.36308,0.0951 0.90343,-0.0951 -0.0951,-0.72909 -0.0951,-1.17288 0.64984,-0.90343 0.90343,0.17434 0.26944,-0.63398 0.26945,-0.80834 -0.71324,-0.19019 0,-0.45965 -1.01438,-0.26944 -0.44379,-0.80834 -0.1902,-0.36454 0.1902,-0.72908 0.72909,-1.36308 0.44378,-0.63399 -0.44378,-0.72908 -0.64984,0.55474 -0.36455,1.34722 -1.07778,1.18873 -0.0951,1.45817 -0.17434,2.07631 0.72908,1.18873 -0.91928,0.53889 -1.17287,0.26945 -0.45965,-0.71324 -0.538888,-0.91929 0,-1.17287 -0.459633,-0.26945 -0.903438,1.26798 -1.093629,-0.45964 -0.190199,-0.72909 0,-1.90196 0.554742,-1.26798 1.537423,-0.90343 c 0,0 1.102312,-1.08515 1.283822,-1.90197 0.17017,-0.76576 0.41281,-1.14506 0.44379,-1.18873 l 1.99707,-1.90196 c 0,0 1.82855,-0.81268 2.28235,-0.90343 0.0187,-0.003 0.0413,-0.0134 0.0634,-0.0159 0.003,-2.1e-4 0.0126,-4e-5 0.0159,0 0.003,9e-5 0.0127,6e-5 0.0159,0 0.002,-7e-5 0.0108,0 0.0158,0 0.40738,0.0476 0.90703,0.56873 0.96683,0.63398 l -0.26945,1.82272 0.4438,0.53889 c 0,0 0.9208,0.1902 1.28383,0.1902 0.11344,0 0.20364,0.0268 0.26944,0.0634 0.01,0.006 0.0252,0.0272 0.0317,0.0317 0.0282,0.0205 0.0596,0.041 0.0792,0.0634 0.009,0.0111 0.0246,0.0373 0.0317,0.0476 0.0107,0.0164 0.0264,0.0366 0.0317,0.0476 0.003,0.006 -0.002,0.0111 0,0.0159 l 0.55474,0.55474 0.5389,0.98268 0.63399,-0.26944 0.36454,-0.63399 0.26944,-0.99853 0.4438,-0.26945 0.74493,-1.90196 c 0,0 0.97072,-0.88448 1.34722,-0.99853 0.003,-0.003 -5.9e-4,-0.0151 0,-0.0159 10e-4,3e-5 0.0147,-10e-5 0.0159,0 0.006,-0.003 0.0277,0.002 0.0317,0 0.004,-0.002 0.0116,-0.0137 0.0159,-0.0159 0.002,-0.002 0.0134,-0.0136 0.0159,-0.0159 0.004,-0.004 0.0252,-0.009 0.0317,-0.0159 0.007,-0.009 0.009,-0.0376 0.0159,-0.0476 0.002,-0.004 0.0138,-0.0115 0.0159,-0.0159 0.22042,-0.41421 0.2219,-1.60082 0.2219,-1.60082 l 0.2853,-0.53889 1.17287,-0.63399 1.71177,0.53889 0,-0.90343 -1.63252,-0.82419 -1.34722,-1.71176 c 0,0 1.26948,-0.0202 1.63251,-0.11095 0.36304,-0.0908 1.34723,-0.61814 1.34723,-0.61814 l -0.71323,-0.45964 -0.80834,-0.26945 -0.26945,-0.28529 -0.72908,-0.53889 -0.45964,-0.90344 c 0.006,-0.0318 0.0256,-0.17319 0.0951,-0.72908 0.0851,-0.68068 0.57434,-1.12094 0.63398,-1.17288 l 0.80833,-0.1902 -0.34869,-0.45964 -0.38039,-1.07778 0.82418,-0.90343 c 0,0 -0.36454,-0.81853 -0.36454,-1.36307 0,-0.31482 0.15733,-0.54873 0.2853,-0.68154 0.05,-0.0506 0.10977,-0.0885 0.14265,-0.11095 0.01,-0.006 0.0236,-0.0264 0.0317,-0.0317 l -0.64983,-0.99853 -0.98268,-0.0793 -0.82419,-0.0951 -0.36454,-1.28382 -0.5389,-0.90344 -0.82418,-0.80833 -0.99853,-1.09363 -1.55327,-0.53889 -1.52157,0.0793 -0.99854,-1.53742 0.4438,-0.17435 0.72908,-0.64984 2.26651,-0.0793 1.99706,0.1902 1.99707,0.44379 1.82271,0.36454 1.90197,0.98268 1.17288,1.01439 1.36307,0.53889 1.26797,1.09363 0.634,0.72908 3.45523,0.90343 1.53742,1.17288 1.45817,0.45964 1.53742,0.4438 1.45818,0.45964 0.45964,0.36454 1.71176,0.72909 1.28383,1.17288 0.17435,1.45817 0.99853,0.0951 1.36307,0.90343 0.90343,1.72762 0.55475,-0.79249 c 0.0436,0.0537 0.0992,0.10458 0.14265,0.1585 -9.15052,-11.35997 -23.18353,-18.6234 -38.895179,-18.6234 -0.322838,0 -0.645432,-0.006 -0.966825,0 z m -15.057221,2.63105 c -0.108141,0.0367 -0.225038,0.0735 -0.332848,0.11095 0.11038,-0.0383 0.22212,-0.0734 0.332848,-0.11095 z m -5.388898,2.18726 c -0.125653,0.0598 -0.25533,0.12933 -0.380399,0.19019 0.125548,-0.0611 0.254267,-0.13013 0.380399,-0.19019 z m -2.979749,1.53742 c -0.117716,0.0661 -0.231563,0.13899 -0.348695,0.20605 0.11667,-0.0668 0.231442,-0.14022 0.348695,-0.20605 z m -3.566184,2.21896 c -0.105554,0.0716 -0.212023,0.13368 -0.316994,0.20604 0.102375,-0.0705 0.21408,-0.13626 0.316994,-0.20604 z m -2.852946,2.06046 c -0.07857,0.0618 -0.143704,0.12798 -0.221894,0.19019 0.07411,-0.0589 0.147433,-0.13168 0.221894,-0.19019 z m 23.727005,8.1309 2.710305,2.47255 -0.07925,0.26945 -0.459642,0.11094 c 0,0 -1.459687,1.08798 -1.822715,1.63252 -0.03218,0.0514 -0.05144,0.11919 -0.0634,0.17435 -0.007,0.0369 -0.01643,0.089 -0.01585,0.1268 0.0016,0.0427 0.0063,0.0996 0.01585,0.14265 0.109223,0.45426 0.61814,0.91928 0.61814,0.91928 l -2.726153,2.3616 c 0,0 -1.677747,-0.61489 -2.076309,-0.63398 -0.003,-8e-5 -0.01302,0 -0.01585,0 -0.363036,0 -3.534491,0.17434 -3.534491,0.17434 l -2.1714,0.63399 -1.997067,1.09363 -0.285299,1.17288 -0.90343,-1.55327 c 0,0 0.09207,-2.04968 0.523041,-2.53595 0.007,-0.007 0.02453,-0.0252 0.0317,-0.0317 0.0012,-0.001 -0.0011,-0.0148 0,-0.0159 0.0092,-0.007 0.03655,-0.009 0.04755,-0.0159 0.004,-0.002 0.01148,-0.0137 0.01585,-0.0159 0.0013,1e-4 0.01475,-3e-5 0.01585,0 0.0075,-0.003 0.0235,-0.0124 0.0317,-0.0159 0.0168,-0.008 0.04696,-0.0217 0.0634,-0.0317 0.01114,-0.008 0.03624,-0.0229 0.04755,-0.0317 0.469949,-0.37777 1.092148,-1.70921 1.458171,-2.09216 0.003,-0.003 0.01278,-0.0129 0.01585,-0.0158 0.01877,-0.0168 0.03014,-0.035 0.04755,-0.0476 0.0011,-0.001 0.01459,-0.0145 0.01586,-0.0159 0.0066,-0.003 0.02858,-0.0142 0.03169,-0.0159 0.0043,-0.002 0.0116,0.002 0.01586,0 0.363027,-0.0908 2.187257,-0.1902 2.187257,-0.1902 0,0 0.8993,-1.36459 1.806867,-1.72761 0.907576,-0.36303 3.360138,-2.17142 3.360138,-2.17142 0,0 0.08815,-0.0374 0.110947,-0.0475 l 2.97974,-0.0793 z m 52.208931,9.77926 c 0.1217,0.2568 0.23128,0.51746 0.3487,0.77664 -0.11777,-0.25956 -0.22665,-0.51946 -0.3487,-0.77664 z m 2.32991,5.8644 c 0.0232,0.0712 0.0405,0.15059 0.0634,0.22189 -0.0235,-0.0731 -0.0396,-0.14895 -0.0634,-0.22189 z m 0.33284,1.07778 c 0.0433,0.14371 0.0848,0.28368 0.12679,0.42794 -0.0418,-0.14318 -0.0838,-0.2853 -0.12679,-0.42794 z m 0.41209,1.41062 c 0.0293,0.10908 0.0506,0.22347 0.0793,0.33284 -0.0286,-0.10926 -0.0499,-0.22387 -0.0793,-0.33284 z m -55.378862,0.23775 1.172872,1.18872 -0.443786,0.61814 -0.174353,1.28383 0.808338,0.53889 0,1.55327 0.443796,0.80834 -0.633995,0.26944 0,1.09363 -1.632515,-0.1902 -0.618138,0.0951 -0.998538,-0.0951 0.07925,-0.34869 0.190199,-1.18873 0.903429,-0.82418 0.633986,-0.3487 -0.459634,-0.45964 c -0.09186,0.0212 -0.848396,0.19855 -1.188728,0.53889 -0.363027,0.36303 -0.538895,1.09363 -0.538895,1.09363 l -1.252125,-0.0951 -0.554743,-0.80833 0,-1.18873 1.442325,-0.82418 1.363072,0.11094 -0.174343,-1.01438 0.443794,-1.72762 1.188729,-0.0792 z m 55.521512,0.31699 c 0.0257,0.0999 0.0542,0.18513 0.0793,0.28529 -0.0238,-0.095 -0.0549,-0.19054 -0.0793,-0.28529 z m 0.1902,0.77664 c 0.0164,0.0684 0.0315,0.13758 0.0476,0.20604 -0.0162,-0.0686 -0.0311,-0.13752 -0.0476,-0.20604 z m 0.1268,0.53889 c 0.0336,0.1476 0.0628,0.29569 0.0951,0.44379 -0.0324,-0.14839 -0.0614,-0.2959 -0.0951,-0.44379 z m 0.19019,0.88758 c 0.0135,0.0645 0.0343,0.12563 0.0476,0.1902 -0.0132,-0.0646 -0.0341,-0.12568 -0.0476,-0.1902 z m 0.0476,0.2219 c 0.0152,0.0744 0.0327,0.14736 0.0476,0.22189 -0.0149,-0.075 -0.0323,-0.14703 -0.0476,-0.22189 z m 0.0634,0.26944 c 0.0115,0.0582 0.0204,0.11612 0.0317,0.17435 -0.0109,-0.0558 -0.0207,-0.1186 -0.0317,-0.17435 z m 0.0476,0.28529 c 0.0134,0.0698 0.0344,0.13618 0.0476,0.20605 -0.0132,-0.0701 -0.0341,-0.13604 -0.0476,-0.20605 z m 0.0634,0.3487 c 0.0138,0.0749 0.034,0.1469 0.0476,0.22189 -0.0136,-0.0754 -0.0336,-0.14655 -0.0476,-0.22189 z m 0.11094,0.60229 c 0.008,0.0473 0.008,0.0953 0.0159,0.14264 -0.008,-0.0483 -0.008,-0.0944 -0.0159,-0.14264 z m 0.0634,0.41209 c 0.0247,0.15079 0.0559,0.29256 0.0792,0.44379 -0.0229,-0.14861 -0.055,-0.29561 -0.0792,-0.44379 z m 0.11095,0.66569 c 0.0113,0.0757 0.0207,0.16191 0.0317,0.23774 -0.0114,-0.079 -0.0199,-0.15881 -0.0317,-0.23774 z m 0.17434,1.26797 c 0.0142,0.11448 0.0183,0.21813 0.0317,0.33285 -0.0128,-0.10953 -0.0182,-0.22353 -0.0317,-0.33285 z m -74.144909,4.29527 -0.07925,0.99854 -0.824185,-0.90344 0.903438,-0.0951 z m 22.601674,3.53449 0,1.90196 0.0951,1.63252 -0.633986,0.45964 -0.538886,-0.63399 -0.0951,-1.72761 1.172872,-1.63252 z m 30.685025,34.67915 -0.19019,0.90343 -1.07778,1.99707 -1.28383,2.5518 -1.80686,0.71324 -1.07778,-1.09362 0.71323,-1.07779 0.91929,-1.82272 0.71324,-0.53889 1.82271,-0.72909 1.26797,-0.90343 z" />
        <path
           inkscape:connector-curvature="0"
           id="path24276"
           style="fill:url(#linearGradient24403);fill-opacity:1;fill-rule:evenodd;stroke:none"
           d="m 85.553799,253.86887 c -17.3424,5.28006 -30.693438,19.75381 -34.361378,37.73693 l 1.434301,4.50074 0.630597,-2.26274 1.174641,-2.17617 1.001535,0 0.272022,-0.72952 0.272021,-1.00154 0.09892,-3.26427 c 0,0 0.539592,-1.2691 0.902618,-1.63213 0.0028,-0.003 0.0096,-0.009 0.01236,-0.0124 0.0027,-0.003 0.0097,-0.009 0.01237,-0.0124 0.335924,-0.38851 0.432757,-1.33538 0.432757,-1.33538 l 0.544044,-1.90416 1.533216,-1.45903 0.914981,0.18547 1.273566,-0.45749 1.805237,-0.6306 1.100459,1.27356 0.544044,0.0865 0.544045,-0.81606 1.17464,0.81606 0.816066,0.90262 0.272022,-0.90262 0.729513,-0.81606 0.358584,-1.18701 0.272021,-0.81607 1.001535,0.18547 0.630597,1.99071 -0.816075,2.00308 -0.630588,1.71868 1.545578,2.36165 0.816074,-2.80677 -0.370945,-1.73106 2.905696,-1.90415 -0.445128,-1.17465 c 0,0 1.35145,-0.28018 1.805238,-0.37094 0.01329,-0.003 0.03377,-0.009 0.04946,-0.0124 0.0011,3e-5 0.01111,-9e-5 0.01237,0 0.01738,-0.006 0.04473,-0.016 0.06182,-0.0247 0.01703,-0.009 0.0451,-0.0257 0.06182,-0.0371 0.366495,-0.26 0.660079,-1.0291 0.816067,-1.73105 0.181513,-0.81682 -0.544035,-1.81761 -0.544045,-1.81761 0,0 1.44297,-2.82013 1.285928,-3.57339 1.22e-4,-0.004 -7e-5,-0.0205 0,-0.0247 -0.0022,-0.004 -0.01013,-0.0205 -0.01237,-0.0247 3.5e-5,-10e-4 -1.3e-4,-0.0111 0,-0.0124 -0.02552,-0.0596 -0.05783,-0.11118 -0.08655,-0.14838 -0.0043,-0.004 -0.02039,-0.0205 -0.02473,-0.0247 -0.0025,-0.003 -0.0099,-0.01 -0.01236,-0.0124 -0.01658,-0.0149 -0.04351,-0.0388 -0.06183,-0.0495 -0.0013,8e-5 -0.01126,-2e-5 -0.01236,0 -0.0043,-0.002 -0.02034,-0.0101 -0.02473,-0.0124 -0.0011,10e-6 -0.01099,-6e-5 -0.01237,0 -0.0013,6e-5 -0.01126,-1e-5 -0.01236,0 -0.0087,-0.003 -0.02824,-0.01 -0.03709,-0.0124 -0.0012,-1.1e-4 -0.0099,-2e-5 -0.01236,0 -0.0014,-5e-5 -0.01124,0 -0.01237,0 -0.0045,0.002 -0.02051,0.0103 -0.02473,0.0124 -0.0014,4e-5 -0.01078,5e-5 -0.01236,0 -0.0017,-1.2e-4 -0.01066,8e-5 -0.01236,0 -0.0016,-1e-5 -0.01094,-1.2e-4 -0.01237,0 -0.256645,0.068 -0.587143,0.40445 -0.989172,0.51931 -0.635302,0.18152 -2.27064,0.99733 -2.633667,1.08809 -0.363036,0.0908 -2.361643,0.37094 -2.361653,0.37094 0,0 0.358323,-0.82398 0.630598,-1.187 0.272275,-0.36303 0.910529,-0.5438 1.273556,-0.81607 0.363027,-0.27227 1.001534,-1.08809 1.001543,-1.08809 l 1.174641,-2.36165 c 0,0 1.639798,-1.27306 2.275091,-1.81761 0.635302,-0.54454 1.904163,0.37095 1.904163,0.37095 l 1.174641,0.81606 c 0,0 -0.0802,1.67768 -0.370938,2.10199 -0.0148,0.0203 -0.04238,0.045 -0.06182,0.0618 -0.0031,0.002 -0.0095,0.0104 -0.01237,0.0124 -0.0043,0.002 -0.01827,0.009 -0.02473,0.0124 -0.0012,0.001 -0.0113,0.0113 -0.01237,0.0124 -0.0023,0.002 -0.01086,0.011 -0.01236,0.0124 -0.003,0.003 -0.0093,0.009 -0.01236,0.0124 -0.391742,0.40631 -1.125183,2.31219 -1.125183,2.31219 0,0 2.089369,-1.00104 2.361643,-1.54558 0.272275,-0.54455 2.089631,-1.54558 2.089631,-1.54558 l 1.632132,-0.27203 0.90262,0.64297 c 0,0 0.823976,0.0826 1.187011,-0.0989 0.363018,-0.18152 2.361148,-0.81607 2.905689,-0.81607 0.104656,0 0.241233,0.0289 0.408032,0.0742 l 2.299833,-0.54404 -0.07419,-1.52086 -1.817601,0.27203 -0.91499,0.0865 c 0,0 -1.903657,0.18572 -2.448197,-0.0865 -0.544549,-0.27228 -0.811117,-0.37095 -1.718685,-0.37095 -0.68069,0 -0.908743,0.10969 -0.976809,0.16074 -0.0026,0.003 -0.01108,0.0111 -0.01236,0.0124 -0.0014,10e-4 -0.0098,0.01 -0.01237,0.0124 l -2.176176,-0.27202 0.630597,-1.00154 c 0,0 1.998618,-0.0823 2.361653,-0.1731 0.363027,-0.0908 2.542661,-0.18126 2.905687,-0.27202 0.340342,-0.0851 0.841471,-0.65939 0.90262,-0.72952 l -1.632132,-0.18547 -1.001543,-0.44512 0.642968,-1.37248 2.53475,-1.36011 1.545579,-0.81607 c 0,0 2.175688,-0.63455 2.720228,-0.81607 0.544549,-0.18151 2.089631,0.0989 2.089631,0.0989 0,0 3.729176,0.44933 4.636746,0.35857 0.90758,-0.0908 1.36011,-1.8176 1.36011,-1.8176 l -0.72951,-1.54558 -1.904159,-1.08809 c 0,0 -1.821058,-0.35462 -2.547121,-0.17311 -0.726054,0.18152 -3.536294,0.71715 -3.536294,0.71715 l -3.264263,0.72952 -2.720228,-0.0865 -1.372481,0.0865 -0.630588,-1.58268 c -0.0011,-1.4e-4 -0.01133,4e-5 -0.01237,0 z m 24.247091,1.8547 -2.2751,0.0866 -0.71715,0.64296 -0.45749,0.17311 1.00154,1.54558 1.53322,-0.0865 1.54558,0.54404 1.00154,1.08809 0.81607,0.81607 0.54403,0.90262 0.35858,1.27356 0.82843,0.0989 0.98917,0.0865 0.64296,1.00154 c -0.008,0.005 -0.0273,0.0183 -0.0371,0.0247 -0.0329,0.0224 -0.086,0.0607 -0.13601,0.11128 -0.12797,0.13281 -0.2844,0.36524 -0.2844,0.68005 0,0.54455 0.35858,1.36012 0.35858,1.36012 l -0.81607,0.90262 0.37094,1.08809 0.35858,0.45749 -0.81607,0.18547 c -0.0596,0.0519 -0.54551,0.49396 -0.6306,1.17464 -0.0794,0.6353 -0.0961,0.71893 -0.0989,0.72952 l 0.45749,0.90262 0.72951,0.54404 0.27202,0.27202 0.81608,0.27202 0.71715,0.4575 c 0,0 -0.99708,0.53984 -1.36012,0.63059 -0.36303,0.0908 -1.63213,0.0989 -1.63213,0.0989 l 1.36011,1.71869 1.63214,0.81607 0,0.91498 -1.7187,-0.54404 -1.17464,0.63059 -0.28438,0.54405 c 0,0 -0.002,1.18083 -0.22257,1.59504 -0.002,0.004 -0.0103,0.0205 -0.0124,0.0247 -0.007,0.01 -0.0179,0.0284 -0.0247,0.0371 -0.006,0.007 -0.0211,0.0211 -0.0247,0.0247 -0.002,0.002 -0.01,0.0103 -0.0124,0.0124 -0.004,0.002 -0.0204,0.0103 -0.0247,0.0124 -0.004,0.002 -0.0182,0.009 -0.0247,0.0124 -0.001,-1e-4 -0.0113,3e-5 -0.0124,0 -5.9e-4,7.2e-4 -0.01,0.01 -0.0124,0.0124 -0.37651,0.11405 -1.34775,0.98917 -1.34775,0.98917 l -0.72952,1.90416 -0.44513,0.27202 -0.27202,1.00154 -0.37094,0.6306 -0.63059,0.27202 -0.54405,-0.98917 -0.54404,-0.54405 c 0,0 -0.007,-0.0135 -0.0124,-0.0247 -0.0171,-0.035 -0.0609,-0.10605 -0.13602,-0.16074 -0.009,-0.006 -0.0275,-0.0191 -0.0371,-0.0247 -0.0658,-0.0366 -0.15856,-0.0618 -0.27202,-0.0618 -0.36303,0 -1.27356,-0.18547 -1.27356,-0.18547 l -0.44512,-0.54404 0.27202,-1.81761 c 0,0 -0.52991,-0.59222 -0.96444,-0.64296 -0.004,-1.8e-4 -0.0197,-1.3e-4 -0.0247,0 -0.003,6e-5 -0.01,9e-5 -0.0124,0 -0.0259,-2.9e-4 -0.0616,0.008 -0.0865,0.0124 -0.45379,0.0908 -2.2751,0.90262 -2.2751,0.90262 l -1.99071,1.90416 c -0.031,0.0437 -0.28732,0.42124 -0.45749,1.18701 -0.18151,0.81682 -1.273554,1.90415 -1.273554,1.90415 l -1.545586,0.90262 -0.544045,1.27356 0,1.90416 0.185469,0.72952 1.088089,0.45749 0.902627,-1.27356 0.457491,0.27202 0,1.17464 0.544039,0.91499 0.4575,0.71715 1.17464,-0.27203 0.91499,-0.54404 -0.72952,-1.17464 0.18547,-2.08963 0.0866,-1.44666 1.08808,-1.18701 0.35858,-1.36011 0.64296,-0.54405 0.45749,0.72952 -0.45749,0.63059 -0.72952,1.36012 -0.18546,0.72951 0.18546,0.35858 0.4575,0.81606 1.00153,0.27203 0,0.45749 0.71715,0.18547 -0.27202,0.81607 -0.27202,0.63059 -0.90262,-0.1731 -0.64296,0.90262 0.0989,1.17464 0.0866,0.72952 -0.90262,0.0865 -1.36012,-0.0865 -1.27356,0.0865 -1.001532,-0.90262 -0.544043,-0.90262 -0.4575,-0.72952 -0.358575,1.00154 0.185469,0.98917 0,0.72952 -1.187004,0.37094 -0.71715,0 -0.729513,1.44666 -0.816065,0.27202 -1.088097,1.36012 -1.001534,0.45749 -1.001535,0.0866 -1.545578,-0.45749 -0.358575,0.72951 1.817601,0.64297 -0.272022,1.17464 0,1.17464 -0.08655,1.08809 -0.185468,0.72952 -1.273557,-1.08809 -1.446671,-0.54405 -1.360111,-0.27202 -0.185468,0.35857 -0.370946,1.64451 -0.173097,0.63059 -0.729513,0.6306 0,0.54404 0.45749,0.64296 -0.272022,0.54405 0,0.35858 1.174641,0.27202 0.457491,0.6306 1.718685,0.45749 0.544043,0 0.816067,-0.6306 0.642968,-0.45749 0.45749,-0.6306 0,-0.64296 0.544045,-0.81607 0.902618,-0.35857 0.902619,-0.18548 0.09892,-1.3601 0.71716,-0.18548 0.91498,0.55642 1.088089,-0.37094 1.088087,-0.27203 0.544045,0.91499 0.902627,0.98917 1.273561,0.81606 c 0.0581,0.002 0.53897,0.0289 0.86552,0.32149 0.0137,0.0126 0.0363,0.0358 0.0495,0.0495 0.068,0.0728 0.12844,0.1678 0.1731,0.27203 0.25525,0.59559 0.27106,1.03602 0.27203,1.08809 l -0.17311,1.00153 -1.00153,0 -1.187009,0 1.001539,0.81607 0.37093,0.54405 0.0866,0.81606 0.45749,-1.00153 0.1731,-0.81607 0.81607,-0.35858 0.27202,-0.82843 0.0989,-0.71715 0.71715,0.0866 -0.27203,-0.81608 -1.36011,-0.90261 -1.17464,-1.36011 -1.273563,-1.37248 0.729513,-0.54405 0.81607,0.27203 c 0,0 0.36648,0.73322 0.72951,1.18701 0.36303,0.45378 1.44666,1.17463 1.44666,1.17463 l 0.81608,0.37095 0.0866,0.98917 0.55641,0.54404 0.81606,0.64296 c 0,0 0,0.72507 0,1.08809 0,0.36304 0.0905,0.63851 0.27202,1.00154 0.17017,0.34034 0.65764,0.52283 0.71715,0.54405 0,0 0.50523,0.16222 0.76662,0.0618 0.007,-0.003 0.021,-0.0106 0.0247,-0.0124 0.005,-0.003 0.0185,-0.009 0.0247,-0.0124 0.002,-0.002 0.0102,-0.0101 0.0124,-0.0124 0.002,-0.002 0.0102,-0.0101 0.0124,-0.0124 0.006,-0.006 0.0187,-0.0186 0.0247,-0.0247 7.4e-4,-8.2e-4 0.01,-0.01 0.0124,-0.0124 0.002,-0.002 0.0101,-0.0102 0.0124,-0.0124 0.002,-0.004 0.0102,-0.0202 0.0124,-0.0247 -2e-5,-0.001 1.3e-4,-0.0112 0,-0.0124 0.002,-0.004 0.0102,-0.0204 0.0124,-0.0247 0.0908,-0.36304 0.26806,-0.72481 0.0866,-1.36011 -0.18151,-0.6353 -0.18547,-2.08963 -0.18547,-2.08963 l 0.81607,-0.54405 1.18701,0.0989 0.72951,-1.45903 -0.37094,-0.90261 0.27202,-1.73106 0.37094,-0.90262 1.17465,-1.08809 1.44666,0.27202 1.18701,-0.54404 c 0,0 0.8085,-0.0632 1.14991,0.14837 0.0151,0.01 0.0364,0.0261 0.0495,0.0371 0.0116,0.0104 0.0364,0.0352 0.0495,0.0495 0.002,0.004 0.0103,0.0204 0.0124,0.0247 0.002,0.002 0.0102,0.0102 0.0124,0.0124 0.18153,0.36303 0.44514,0.90262 0.44514,0.90262 0,0 0.55195,0.18943 0.91498,0.37094 0.36303,0.18152 0.98918,0.6306 0.98918,0.6306 l 0.18546,1.36011 -1.17464,0.4575 -1.90416,0.27202 c 0,-10e-6 -0.81977,-0.0865 -1.27356,-0.0865 -0.45378,0 -1.45903,0.44512 -1.45903,0.44512 l -0.35857,0.64296 -0.72952,0.6306 -0.90262,0.27202 -0.72951,0.27202 -0.27202,0.90263 0.72951,1.37247 0.54405,0.81607 1.00154,0.44513 1.90415,-0.17311 0.6306,-0.37094 0.91498,-0.1731 0.27202,-0.0989 0.54405,0.64296 0,1.36011 -0.54405,0.81607 -0.27202,1.08809 -1.37247,0.27202 -1.0881,0 -1.63213,0.35858 -1.90415,-0.0865 -2.08963,-0.27203 c 0,0 -0.7963,-0.22197 -1.17464,-0.0495 -0.0133,0.006 -0.0361,0.0171 -0.0495,0.0247 -0.002,0.002 -0.0102,0.0101 -0.0124,0.0124 -0.0163,0.0145 -0.0359,0.0331 -0.0494,0.0495 -0.002,0.002 -0.0102,0.0102 -0.0124,0.0124 -0.007,0.0104 -0.0185,0.0259 -0.0247,0.0371 -0.003,0.005 -0.0101,0.0198 -0.0124,0.0247 -0.002,0.002 -0.0101,0.0102 -0.0124,0.0124 7e-5,0.004 -1.5e-4,0.0204 0,0.0247 -0.002,0.004 -0.0102,0.0204 -0.0124,0.0247 6e-5,10e-4 -2e-5,0.0113 0,0.0124 -0.0908,0.54455 -0.35858,1.36012 -0.35858,1.36012 l -1.54558,0.1731 -2.4482,-1.08809 -2.003073,-0.90262 -0.717159,-0.37094 0.08655,-1.80524 -0.272023,-1.27356 -2.262729,0 -2.547121,-0.27202 -2.089631,0.0865 -1.088078,0.4575 -2.089631,-0.35858 -0.90262,-0.54405 -0.457499,1.0881 c 0,0 -0.992866,0.0821 -1.446663,0.44512 -0.453788,0.36303 -2.448197,1.81761 -2.448197,1.81761 l 0.08655,1.187 -2.633675,0.0866 -0.630598,1.54558 -2.633674,1.63213 0.445128,1.54559 -0.358574,1.9907 -0.63059,1.08809 -0.457499,2.08963 0,1.36011 1.545579,1.90416 0.729521,1.45903 0.173107,0.44513 3.17771,3.17771 1.273565,0.37094 1.273556,0.0866 1.63214,0.18546 1.273556,0.6306 2.077261,0 3.177718,-0.0865 1.36011,1.71869 1.632132,0.0865 1.37248,0.4575 -0.09891,1.90415 -0.630597,1.36011 1.088088,0.81608 1.273556,1.37247 0.816075,1.08809 0.717149,1.26119 0.45749,1.00155 -1.174639,1.08808 -0.4575,1.54559 0.358584,0.54405 1.001535,0.63059 1.00154,0.54404 0.27202,1.18701 0.6306,0.81607 1.08808,0.18546 0.91499,0.63061 0.6306,0.54405 1.45903,-0.0866 2.26273,-0.72952 1.54558,0 0.81607,0.27203 1.17464,-1.0881 1.81761,-0.27202 1.36011,-1.45903 1.73105,-0.81607 0.54405,-1.44666 1.08808,-0.6306 1.00155,-1.37247 2.44819,-0.6306 0.17311,-1.63213 0.0989,-1.8176 -0.27203,-2.36166 2.08964,-3.53629 1.71868,-1.44667 0.81606,-1.81761 2.17618,-1.73105 1.27356,-1.63213 0.27203,-2.4482 -0.35858,-1.54558 c 0,-10e-6 -2.10475,1.43363 -2.51003,1.86706 -0.005,0.005 -0.0197,0.0201 -0.0247,0.0247 -0.001,0.001 -0.0111,0.0109 -0.0124,0.0124 -0.005,0.008 -0.0184,0.0285 -0.0247,0.0371 -0.34335,0.38861 -1.87942,1.33539 -1.87942,1.33539 l -1.54559,-0.91499 -3.17771,-2.53475 -1.80524,-2.2751 -1.27356,-1.8176 c 0,0 -0.36649,-0.18102 -0.72951,-0.54405 -0.003,-0.003 -0.01,-0.009 -0.0124,-0.0124 -10e-4,-10e-4 -0.0113,-0.0113 -0.0124,-0.0124 -0.32509,-0.40311 -0.66423,-1.98012 -0.98917,-2.36165 -0.006,-0.007 -0.0206,-0.0207 -0.0247,-0.0247 -0.001,-0.001 -0.01,-0.01 -0.0124,-0.0124 -0.001,-0.001 -0.0113,-0.0112 -0.0124,-0.0124 -0.004,-0.002 -0.0207,-0.0105 -0.0247,-0.0124 -0.36304,-0.18151 -1.44667,-1.17464 -1.44667,-1.17464 l 0.71715,-0.91499 1.08809,0.37095 1.00154,1.53321 1.00153,1.187 0.35858,1.00155 1.54558,0.0865 0.35858,1.27356 1.00153,0.71714 0.6306,0.81607 c 0,0 0.6911,0.35311 0.81607,0.70479 -2e-5,10e-4 1.1e-4,0.0112 0,0.0124 0.002,0.002 0.0101,0.0102 0.0124,0.0124 0.0908,0.36303 0.71715,1.36011 0.71715,1.36011 l 0.18548,1.63213 2.26272,-0.1731 0.91498,-1.45903 1.81761,-1.44667 1.90416,-2.08962 1.54558,-2.36165 0.6306,-1.81761 0.72951,-2.34928 -0.72951,-0.91498 -1.36012,0.0866 -0.81606,-0.6306 -0.81607,1.17465 -0.64297,1.10045 -1.63213,-0.0989 -1.63213,-1.54558 -0.45749,-1.08809 -0.0866,-1.17464 2.44819,0.35857 0.27203,0.64296 2.00307,0.17311 0.71715,-0.98917 2.08963,-0.0989 c 0,0 1.48067,-0.43295 1.71869,-0.79134 0.003,-0.006 0.0102,-0.0205 0.0124,-0.0247 0.18152,-0.36303 1.08809,-1.71869 1.08809,-1.71869 l 1.17464,-0.27202 1.18701,0.90262 0.90262,-0.35857 -0.0865,1.08809 0.90262,-0.35858 0.18547,-1.54558 0.90261,2.08963 1.0881,1.63213 1.08809,1.44667 c 0,0 0.09,1.08784 0.81606,1.36011 0.68069,0.25526 1.04556,0.58971 1.0881,0.6306 l 0.37094,-1.63214 c 0.0243,-0.0529 0.16115,-0.32947 0.29675,-0.44513 0.008,-0.005 0.0277,-0.0182 0.0371,-0.0247 0.001,-10e-4 0.0111,-0.011 0.0124,-0.0124 0.001,2e-5 0.0111,-1.1e-4 0.0124,0 0.001,-10e-4 0.0111,-0.0109 0.0124,-0.0124 0.001,0 0.0111,-6e-5 0.0124,0 0.001,0 0.0111,-4e-5 0.0124,0 0.002,-1.2e-4 0.0105,10e-6 0.0124,0 9.2e-4,4e-5 0.01,3e-5 0.0124,0 0.001,-2e-5 0.011,5e-5 0.0124,0 0.002,0.002 0.0102,0.0101 0.0124,0.0124 0.001,-4e-5 0.011,1.1e-4 0.0124,0 0.002,0.002 0.0103,0.0101 0.0124,0.0124 0.002,10e-4 0.0107,0.0108 0.0123,0.0124 0.002,0.002 0.0107,0.0104 0.0124,0.0124 0.002,0.002 0.0102,0.0102 0.0124,0.0124 0.002,0.004 0.0103,0.0203 0.0124,0.0247 0.003,0.006 0.009,0.0185 0.0124,0.0247 0.002,0.004 0.0102,0.0205 0.0124,0.0247 0.15882,0.39706 0.11381,1.1431 0.0989,1.32301 l 0.44512,-0.86552 0.35859,-1.27356 -0.90263,-0.27203 -0.54404,-0.81606 -0.37094,-1.63214 -0.0866,-2.08963 0.4575,-2.63366 0.27201,-3.0788 0.35858,-2.08963 0.81608,1.63213 1.08808,1.54559 0.0989,0.1731 0.1731,-1.53322 0.37094,-1.187 0.0866,-1.17465 0.54403,-0.45749 0.34622,-0.5935 c -1.05308,-9.81558 -4.94853,-18.79105 -10.85617,-26.0647 l -0.55641,0.79134 -0.91498,-1.71869 -1.36012,-0.91498 -1.00153,-0.0865 -0.17311,-1.45903 -1.27356,-1.17465 -1.71869,-0.72951 -0.45749,-0.35858 -1.45902,-0.45749 -1.53322,-0.44513 -1.45903,-0.45749 -1.54558,-1.187 -3.44974,-0.90262 -0.6306,-0.72952 -1.27356,-1.08809 -1.36011,-0.54404 -1.17464,-1.00154 -1.90417,-0.98917 -1.8176,-0.37094 -2.00306,-0.44513 -1.99072,-0.18547 z m -16.791204,14.75103 -2.979879,0.0866 c -0.0228,0.0101 -0.111287,0.0495 -0.111287,0.0495 0,0 -2.443239,1.81315 -3.350815,2.17618 -0.907568,0.36302 -1.817601,1.71868 -1.817609,1.71868 0,0 -1.81314,0.0947 -2.176176,0.18547 -0.0043,0.002 -0.02043,0.0101 -0.02473,0.0124 -0.0031,0.002 -0.01813,0.009 -0.02473,0.0124 -0.0013,0.001 -0.01127,0.0112 -0.01237,0.0124 -0.01741,0.0126 -0.04305,0.0326 -0.06182,0.0495 -0.0031,0.003 -0.0094,0.009 -0.01236,0.0124 -0.377837,0.3953 -1.02111,1.80239 -1.496129,2.12672 -0.03175,0.0206 -0.0688,0.0394 -0.09891,0.0495 -0.0011,-3e-5 -0.01108,1e-4 -0.01236,0 -0.0065,0.003 -0.01665,0.008 -0.02473,0.0124 -0.01099,0.007 -0.02784,0.0177 -0.0371,0.0247 -0.0011,0.001 -0.01116,0.0111 -0.01236,0.0124 -0.458658,0.41878 -0.544044,2.57185 -0.544044,2.57185 l 0.902619,1.54558 0.272022,-1.17464 2.003077,-1.08809 2.176185,-0.64297 c 0,0 3.173249,-0.1731 3.536285,-0.1731 0.0028,0 0.0094,-8e-5 0.01237,0 0.398554,0.0191 2.077252,0.6306 2.077252,0.6306 l 2.720227,-2.36165 c 0,0 -0.907071,-0.81557 -0.544043,-1.36011 0.363035,-0.54455 1.817609,-1.63214 1.817609,-1.63214 l 0.45749,-0.0989 0.08655,-0.27202 -2.720228,-2.4853 z m -0.08655,18.37388 -1.187003,0.0866 -0.445129,1.73105 0.173098,1.00154 -1.360101,-0.0989 -1.446671,0.81606 0,1.18701 0.544043,0.81607 1.261203,0.0865 c 0,1e-5 0.181008,-0.72506 0.544036,-1.08809 0.363027,-0.36303 1.187011,-0.54404 1.187011,-0.54404 l 0.457491,0.45749 -0.64296,0.35858 -0.902619,0.81606 -0.185468,1.18701 -0.08655,0.35857 1.001535,0.0866 0.630597,-0.0866 1.632132,0.18548 0,-1.08809 0.630606,-0.27203 -0.445138,-0.81606 0,-1.54559 -0.816065,-0.54404 0.173106,-1.27356 0.457491,-0.6306 -1.174641,-1.18701 z m -17.434163,10.89327 -0.902619,0.0865 0.816066,0.91498 0.08655,-1.00153 z m 22.602588,3.53629 -1.174641,1.63213 0.08655,1.73105 0.544043,0.6306 0.630598,-0.45749 -0.08655,-1.63214 0,-1.90415 z m 30.676709,34.6705 -1.27356,0.90262 -1.8176,0.72951 -0.71716,0.54405 -0.91498,1.81761 -0.71715,1.08809 1.0881,1.08808 1.80523,-0.71715 1.27356,-2.54711 1.08809,-2.00308 0.18547,-0.90262 z" />
        <path
           inkscape:connector-curvature="0"
           id="path24278"
           style="opacity:0.897541;fill:url(#radialGradient24405);fill-opacity:1;fill-rule:nonzero;stroke:none"
           transform="translate(46.62873,230.7064)"
           d="m 49.448599,72.811836 c 0,9.021957 -8.697422,16.335697 -19.426236,16.335697 -10.728813,0 -19.426235,-7.31374 -19.426235,-16.335697 0,-9.021957 8.697422,-16.335697 19.426235,-16.335697 10.728814,0 19.426236,7.31374 19.426236,16.335697 z" />
        <path
           inkscape:connector-curvature="0"
           id="path24280"
           style="fill:url(#radialGradient24407);fill-opacity:1;fill-rule:nonzero;stroke:none"
           d="m 100.0709,252.03704 c -18.116972,0 -33.900429,9.47082 -42.035161,23.41575 -0.04868,0.4986 -0.08167,1.00231 -0.08167,1.50822 0,13.9552 18.783417,25.28187 41.926259,25.28187 23.142842,0 41.926252,-11.32667 41.926252,-25.28187 0,-0.75836 -0.0547,-1.50811 -0.16335,-2.24955 -8.25529,-13.53922 -23.7772,-22.67442 -41.57233,-22.67442 z" />
        <path
           inkscape:connector-curvature="0"
           id="path24282"
           style="opacity:0.897541;fill:url(#radialGradient24409);fill-opacity:1;fill-rule:nonzero;stroke:none"
           transform="matrix(0.77027,0,0,0.77027,106.0172,266.6389)"
           d="m 49.448599,72.811836 c 0,9.021957 -8.697422,16.335697 -19.426236,16.335697 -10.728813,0 -19.426235,-7.31374 -19.426235,-16.335697 0,-9.021957 8.697422,-16.335697 19.426235,-16.335697 10.728814,0 19.426236,7.31374 19.426236,16.335697 z" />
        <path
           inkscape:connector-curvature="0"
           id="path24284"
           style="opacity:0.56557378;fill:url(#radialGradient24411);fill-opacity:1;fill-rule:nonzero;stroke:none"
           transform="matrix(1.103843,0,0,0.554397,-185.0634,300.1088)"
           d="m 296.69158,52.944092 c 0,21.457627 -17.39484,38.85247 -38.85247,38.85247 -21.45763,0 -38.85247,-17.394843 -38.85247,-38.85247 0,-21.457627 17.39484,-38.85247 38.85247,-38.85247 21.45763,0 38.85247,17.394843 38.85247,38.85247 l 0,0 z" />
      </g>
    </g>
  </g>
</svg>
